<svg width="12" height="14" viewBox="0 0 12 14" fill="#d77e7e" xmlns="http://www.w3.org/2000/svg">
    <path d="M8.43311 0.333376C8.71614 0.332711 8.93993 0.552601 8.94059 0.845787L8.94125 1.34554C10.7777 1.48946 11.9908 2.74084 11.9928 4.65988L12 10.2771C12.0026 12.3693 10.6882 13.6567 8.58121 13.66L3.43459 13.6667C1.3408 13.6694 0.00988213 12.3514 0.00724926 10.2531L4.41826e-06 4.70186C-0.00262402 2.77016 1.16769 1.52212 3.00412 1.35353L3.00346 0.853783C3.0028 0.560597 3.22001 0.34004 3.50963 0.34004C3.79925 0.339374 4.01646 0.559264 4.01712 0.85245L4.01778 1.31888L7.92759 1.31355L7.92694 0.84712C7.92628 0.553933 8.14349 0.334043 8.43311 0.333376ZM8.70166 9.79464H8.69508C8.3923 9.80197 8.14941 10.0558 8.156 10.3624C8.15665 10.6689 8.40085 10.9214 8.70363 10.9281C9.01234 10.9274 9.26246 10.6735 9.2618 10.3604C9.2618 10.0472 9.01102 9.79464 8.70166 9.79464ZM3.27794 9.7953C2.97516 9.80863 2.7382 10.0625 2.73886 10.369C2.75268 10.6755 3.0028 10.9154 3.30558 10.9014C3.60244 10.8881 3.83874 10.6342 3.82492 10.3277C3.81834 10.0279 3.57414 9.79464 3.27794 9.7953ZM5.9898 9.79197C5.68702 9.80597 5.45072 10.0592 5.45072 10.3657C5.46454 10.6722 5.71466 10.9114 6.01744 10.8981C6.31364 10.8841 6.5506 10.6309 6.53678 10.3237C6.5302 10.0245 6.286 9.79131 5.9898 9.79197ZM3.27465 7.3965C2.97187 7.40983 2.73557 7.66371 2.73622 7.97022C2.74939 8.27673 3.00017 8.51661 3.30295 8.50262C3.59915 8.48929 3.83545 8.23542 3.82163 7.92891C3.81504 7.62906 3.5715 7.39584 3.27465 7.3965ZM5.98717 7.37318C5.68439 7.38651 5.44743 7.64038 5.44808 7.9469C5.46125 8.25341 5.71203 8.49262 6.01481 8.4793C6.31101 8.4653 6.54731 8.2121 6.53414 7.90558C6.5269 7.60573 6.28336 7.37252 5.98717 7.37318ZM8.69903 7.37652C8.39625 7.38318 8.15929 7.62972 8.15994 7.93624V7.94357C8.16653 8.25008 8.41665 8.48263 8.72009 8.47597C9.01629 8.46864 9.25259 8.21476 9.24601 7.90825C9.23218 7.61506 8.99457 7.37585 8.69903 7.37652ZM7.92891 2.33971L4.01909 2.34504L4.01975 2.8841C4.01975 3.17129 3.8032 3.39784 3.51358 3.39784C3.22396 3.39851 3.00609 3.17262 3.00609 2.88543L3.00543 2.37236C1.72191 2.50096 1.01169 3.25525 1.01366 4.70052L1.01432 4.90775L10.9798 4.89443V4.66121C10.9514 3.22859 10.2327 2.47697 8.94257 2.36503L8.94323 2.8781C8.94323 3.16463 8.72009 3.39185 8.43706 3.39185C8.14744 3.39251 7.92957 3.16596 7.92957 2.87944L7.92891 2.33971Z" fill="#d77e7e"></path>
</svg>