<svg width="18" height="14" viewBox="0 0 18 14" fill="none" xmlns="http://www.w3.org/2000/svg">
<path d="M15.2379 1.36898C14.0904 0.85148 12.8604 0.46898 11.5741 0.25148C11.5627 0.249281 11.5508 0.250698 11.5402 0.255536C11.5296 0.260373 11.5207 0.268391 11.5149 0.27848C11.3574 0.55523 11.1819 0.91598 11.0589 1.20098C9.69469 0.997158 8.3078 0.997158 6.94362 1.20098C6.80662 0.885126 6.65213 0.577148 6.48087 0.27848C6.47506 0.268267 6.46628 0.260068 6.45569 0.254975C6.44511 0.249883 6.43322 0.24814 6.42162 0.24998C5.13612 0.46748 3.90612 0.84998 2.75787 1.36823C2.74799 1.37237 2.73961 1.37944 2.73387 1.38848C0.399866 4.81973 -0.239884 8.16623 0.0743663 11.4707C0.0752408 11.4788 0.077753 11.4867 0.08175 11.4937C0.0857471 11.5008 0.0911454 11.507 0.0976163 11.512C1.45991 12.5038 2.97937 13.2593 4.59237 13.747C4.60361 13.7504 4.61564 13.7504 4.62688 13.747C4.63811 13.7435 4.64804 13.7367 4.65537 13.7275C5.00187 13.2625 5.31087 12.7712 5.57487 12.2552C5.59062 12.2252 5.57562 12.1892 5.54412 12.1772C5.05962 11.9948 4.59018 11.7746 4.14012 11.5187C4.13203 11.5141 4.12521 11.5076 4.12028 11.4997C4.11535 11.4918 4.11246 11.4828 4.11187 11.4735C4.11127 11.4642 4.11299 11.4549 4.11688 11.4464C4.12076 11.438 4.12668 11.4306 4.13412 11.425C4.22862 11.3552 4.32312 11.2825 4.41312 11.2097C4.42122 11.2032 4.43098 11.199 4.4413 11.1977C4.45163 11.1964 4.46213 11.1979 4.47162 11.2022C7.41687 12.5252 10.6066 12.5252 13.5174 11.2022C13.5269 11.1977 13.5375 11.1959 13.548 11.1971C13.5584 11.1983 13.5684 11.2024 13.5766 11.209C13.6666 11.2825 13.7604 11.3552 13.8556 11.425C13.8631 11.4305 13.8691 11.4377 13.8732 11.4461C13.8772 11.4545 13.879 11.4638 13.8786 11.4731C13.8781 11.4824 13.8754 11.4914 13.8706 11.4994C13.8658 11.5073 13.8591 11.514 13.8511 11.5187C13.4026 11.7767 12.9361 11.995 12.4464 12.1765C12.4388 12.1792 12.432 12.1835 12.4263 12.1891C12.4205 12.1947 12.4161 12.2014 12.4132 12.2089C12.4103 12.2163 12.409 12.2243 12.4094 12.2323C12.4098 12.2403 12.4119 12.2481 12.4156 12.2552C12.6856 12.7705 12.9946 13.261 13.3344 13.7267C13.3414 13.7363 13.3513 13.7434 13.3625 13.7472C13.3738 13.7509 13.386 13.7511 13.3974 13.7477C15.0131 13.2615 16.5351 12.5056 17.8989 11.512C17.9055 11.5073 17.9111 11.5013 17.9152 11.4943C17.9194 11.4873 17.922 11.4796 17.9229 11.4715C18.2979 7.65098 17.2944 4.33148 15.2611 1.38998C15.2561 1.38042 15.2479 1.37297 15.2379 1.36898ZM6.01512 9.45848C5.12862 9.45848 4.39737 8.65673 4.39737 7.67348C4.39737 6.68948 5.11437 5.88848 6.01512 5.88848C6.92262 5.88848 7.64712 6.69623 7.63287 7.67348C7.63287 8.65748 6.91587 9.45848 6.01512 9.45848ZM11.9964 9.45848C11.1091 9.45848 10.3786 8.65673 10.3786 7.67348C10.3786 6.68948 11.0949 5.88848 11.9964 5.88848C12.9039 5.88848 13.6284 6.69623 13.6141 7.67348C13.6141 8.65748 12.9046 9.45848 11.9964 9.45848Z" fill="white"/>
</svg>
