<svg xmlns="http://www.w3.org/2000/svg" width="15.999" height="16" viewBox="0 0 15.999 16">
  <path id="light_mode" d="M0-9A3,3,0,0,0-3-6,3,3,0,0,0,0-3,3,3,0,0,0,3-6,3,3,0,0,0,0-9ZM7.7-6.484,4.741-7.962,5.787-11.1a.54.54,0,0,0-.684-.684L1.966-10.737.484-13.7a.541.541,0,0,0-.969,0l-1.478,2.959L-5.1-11.787a.54.54,0,0,0-.684.684l1.047,3.137L-7.7-6.484a.541.541,0,0,0,0,.969l2.959,1.478L-5.788-.9A.54.54,0,0,0-5.1-.212l3.137-1.047L-.488,1.7a.541.541,0,0,0,.969,0L1.959-1.259,5.1-.212A.54.54,0,0,0,5.781-.9L4.734-4.034,7.694-5.512A.542.542,0,0,0,7.7-6.484ZM2.828-3.172a4,4,0,0,1-5.656,0,4,4,0,0,1,0-5.656,4,4,0,0,1,5.656,0A4,4,0,0,1,2.828-3.172Z" transform="translate(8 14)" fill="#808080" opacity="1"/>
</svg>
