<svg width="20" height="20" viewBox="0 0 20 20" fill="none" xmlns="http://www.w3.org/2000/svg">
<path fill-rule="evenodd" clip-rule="evenodd" d="M10.0007 0.833313C4.93815 0.833313 0.833984 4.93748 0.833984 9.99998C0.833984 15.0625 4.93815 19.1666 10.0007 19.1666C15.0631 19.1666 19.1673 15.0625 19.1673 9.99998C19.1673 4.93748 15.0631 0.833313 10.0007 0.833313ZM13.974 8.44998C14.0471 8.36635 14.1028 8.26893 14.1378 8.16345C14.1728 8.05798 14.1863 7.94657 14.1775 7.8358C14.1688 7.72503 14.138 7.61712 14.087 7.51842C14.0359 7.41972 13.9656 7.33223 13.8803 7.2611C13.7949 7.18996 13.6962 7.13661 13.5899 7.1042C13.4836 7.07178 13.3719 7.06095 13.2614 7.07234C13.1509 7.08372 13.0437 7.1171 12.9463 7.17051C12.8488 7.22391 12.7631 7.29627 12.694 7.38331L9.11065 11.6825L7.25648 9.82748C7.09932 9.67568 6.88881 9.59169 6.67032 9.59358C6.45182 9.59548 6.24281 9.68312 6.0883 9.83763C5.93379 9.99214 5.84615 10.2011 5.84426 10.4196C5.84236 10.6381 5.92635 10.8486 6.07815 11.0058L8.57815 13.5058C8.66003 13.5876 8.75806 13.6515 8.866 13.6934C8.97393 13.7352 9.0894 13.7541 9.20504 13.7489C9.32068 13.7436 9.43396 13.7143 9.53766 13.6629C9.64136 13.6114 9.73319 13.5389 9.80732 13.45L13.974 8.44998Z" fill="#04D292"/>
</svg>
