<svg class="w-full" viewBox="0 0 400 80" version="1.1" xmlns="http://www.w3.org/2000/svg" xmlns:xlink="http://www.w3.org/1999/xlink">
    <defs>
    <radialGradient cx="44.0805875%" cy="44.6504346%" fx="44.0805875%" fy="44.6504346%" r="58.5389016%" gradientTransform="translate(0.440806,0.446504),scale(1.000000,0.999825),translate(-0.440806,-0.446504)" id="radialGradient-1">
        <stop stop-color="#003D30" offset="0%"></stop>
        <stop stop-color="#004C39" offset="17.31%"></stop>
        <stop stop-color="#007352" offset="50.61%"></stop>
        <stop stop-color="#00B279" offset="96.18%"></stop>
        <stop stop-color="#00B87D" offset="100%"></stop>
    </radialGradient>
    </defs>
    <g id="Page-1" stroke="none" stroke-width="1" fill="none" fill-rule="evenodd">
    <g id="NFTSNIPER_dark" fill-rule="nonzero">
        <g id="Dark">
            <g id="Group">
                <g>
                <path d="M76.76,70.54 L57.17,50.95 C63.82,41.36 63.84,28.58 57.22,18.98 L66.68,9.52 C68.64,7.56 68.64,4.38 66.68,2.41 C64.72,0.45 61.54,0.45 59.57,2.41 L50.12,11.86 C40.5,5.15 27.66,5.13 18.03,11.81 L8.58,2.35 C6.62,0.39 3.44,0.39 1.47,2.35 C-0.49,4.31 -0.49,7.49 1.47,9.46 L10.92,18.92 C4.24,28.55 4.26,41.4 10.97,51.01 L1.52,60.46 C-0.44,62.42 -0.44,65.6 1.52,67.57 C2.5,68.55 3.79,69.04 5.07,69.04 C6.36,69.04 7.64,68.55 8.62,67.57 L18.08,58.11 C22.87,61.41 28.44,63.11 34.03,63.11 C39.65,63.11 45.24,61.39 50.04,58.06 L69.63,77.65 C70.61,78.63 71.9,79.12 73.18,79.12 C74.47,79.12 75.75,78.63 76.73,77.65 C78.72,75.68 78.72,72.5 76.76,70.54 Z M21.22,47.75 C14.15,40.68 14.15,29.18 21.22,22.11 C24.76,18.58 29.4,16.81 34.04,16.81 C38.68,16.81 43.33,18.58 46.86,22.11 C53.93,29.18 53.93,40.68 46.86,47.75 C39.8,54.82 28.3,54.82 21.22,47.75 Z" id="Shape" fill="url(#radialGradient-1)"></path>
                <path d="M31.05,31.94 C29.38,33.61 29.38,36.31 31.05,37.98 C32.72,39.65 35.42,39.65 37.09,37.98 C38.76,36.31 38.76,33.61 37.09,31.94 C35.42,30.27 32.72,30.27 31.05,31.94 Z" id="Path" fill="#00B87D"></path>
                <path d="M76.76,70.54 L57.17,50.95 C64.78,39.97 63.75,24.78 53.98,15.01 C43,4.02 25.12,4.02 14.13,15.01 C8.81,20.33 5.87,27.41 5.87,34.94 C5.87,42.47 8.8,49.55 14.13,54.87 C19.62,60.36 26.84,63.11 34.06,63.11 C39.68,63.11 45.27,61.39 50.07,58.06 L69.66,77.65 C70.64,78.63 71.93,79.12 73.21,79.12 C74.49,79.12 75.78,78.63 76.76,77.65 C78.72,75.68 78.72,72.5 76.76,70.54 Z M21.22,47.75 C17.8,44.32 15.91,39.77 15.91,34.93 C15.91,30.09 17.8,25.53 21.22,22.11 C24.76,18.57 29.4,16.81 34.04,16.81 C38.68,16.81 43.33,18.58 46.86,22.11 C53.93,29.18 53.93,40.68 46.86,47.76 C39.8,54.83 28.3,54.83 21.22,47.75 Z" id="Shape" fill="#00B87D"></path>
                </g>
                <g transform="translate(81.000000, 18.000000)">
                <polygon id="Path" fill="#FFFFFF" points="33.16 0.86 33.16 35.03 25.2 35.03 10.12 16.82 10.12 35.03 0.65 35.03 0.65 0.86 8.61 0.86 23.69 19.07 23.69 0.86 33.16 0.86"></polygon>
                <polygon id="Path" fill="#FFFFFF" points="53.31 8.32 53.31 15.84 68.39 15.84 68.39 23.31 53.31 23.31 53.31 35.02 43.65 35.02 43.65 0.85 70.45 0.85 70.45 8.32 53.31 8.32"></polygon>
                <polygon id="Path" fill="#FFFFFF" points="86.16 8.52 75.67 8.52 75.67 0.86 106.28 0.86 106.28 8.52 95.83 8.52 95.83 35.02 86.17 35.02 86.17 8.52"></polygon>
                <path d="M117.41,34.68 C114.81,34 112.69,33.09 111.06,31.95 L114.23,24.82 C115.76,25.83 117.53,26.64 119.55,27.26 C121.57,27.88 123.55,28.19 125.51,28.19 C129.22,28.19 131.08,27.26 131.08,25.41 C131.08,24.44 130.55,23.71 129.49,23.24 C128.43,22.77 126.73,22.27 124.39,21.75 C121.82,21.2 119.67,20.6 117.95,19.97 C116.22,19.34 114.74,18.32 113.51,16.92 C112.28,15.52 111.66,13.63 111.66,11.26 C111.66,9.18 112.23,7.3 113.37,5.62 C114.51,3.94 116.21,2.62 118.47,1.64 C120.73,0.66 123.51,0.17 126.79,0.17 C129.04,0.17 131.25,0.42 133.43,0.93 C135.61,1.44 137.53,2.17 139.19,3.15 L136.21,10.32 C132.96,8.56 129.8,7.68 126.74,7.68 C124.82,7.68 123.42,7.97 122.54,8.54 C121.66,9.11 121.22,9.85 121.22,10.76 C121.22,11.67 121.74,12.36 122.78,12.81 C123.82,13.27 125.5,13.74 127.81,14.23 C130.41,14.78 132.57,15.38 134.28,16.01 C135.99,16.64 137.47,17.65 138.72,19.04 C139.97,20.42 140.6,22.3 140.6,24.68 C140.6,26.73 140.03,28.59 138.89,30.25 C137.75,31.91 136.04,33.24 133.77,34.23 C131.49,35.22 128.73,35.72 125.47,35.72 C122.69,35.71 120.01,35.37 117.41,34.68 Z" id="Path" fill="#00B87D"></path>
                <polygon id="Path" fill="#00B87D" points="181.2 0.86 181.2 35.03 173.24 35.03 158.16 16.82 158.16 35.03 148.69 35.03 148.69 0.86 156.65 0.86 171.73 19.07 171.73 0.86 181.2 0.86"></polygon>
                <polygon id="Path" fill="#00B87D" points="191.7 0.86 201.36 0.86 201.36 35.03 191.7 35.03"></polygon>
                <path d="M235.58,2.39 C237.86,3.41 239.61,4.88 240.85,6.78 C242.09,8.68 242.71,10.92 242.71,13.49 C242.71,16.06 242.09,18.29 240.85,20.18 C239.61,22.07 237.86,23.52 235.58,24.55 C233.3,25.57 230.62,26.09 227.53,26.09 L221.57,26.09 L221.57,35.02 L211.91,35.02 L211.91,0.85 L227.53,0.85 C230.62,0.86 233.3,1.37 235.58,2.39 Z M231.43,17.19 C232.44,16.33 232.94,15.1 232.94,13.5 C232.94,11.91 232.43,10.67 231.43,9.79 C230.42,8.91 228.92,8.47 226.94,8.47 L221.57,8.47 L221.57,18.47 L226.94,18.47 C228.93,18.48 230.42,18.05 231.43,17.19 Z" id="Shape" fill="#00B87D"></path>
                <polygon id="Path" fill="#00B87D" points="278.49 27.56 278.49 35.03 251.06 35.03 251.06 0.86 277.86 0.86 277.86 8.33 260.63 8.33 260.63 14.09 275.81 14.09 275.81 21.31 260.63 21.31 260.63 27.56"></polygon>
                <path d="M302.45,25.95 L297.18,25.95 L297.18,35.03 L287.52,35.03 L287.52,0.86 L303.14,0.86 C306.23,0.86 308.92,1.37 311.19,2.4 C313.47,3.42 315.22,4.89 316.46,6.79 C317.7,8.69 318.32,10.93 318.32,13.5 C318.32,15.97 317.74,18.13 316.59,19.97 C315.43,21.81 313.78,23.25 311.63,24.29 L319,35.03 L308.65,35.03 L302.45,25.95 Z M307.04,9.79 C306.03,8.91 304.53,8.47 302.55,8.47 L297.18,8.47 L297.18,18.47 L302.55,18.47 C304.53,18.47 306.03,18.04 307.04,17.18 C308.05,16.32 308.55,15.09 308.55,13.49 C308.55,11.91 308.05,10.67 307.04,9.79 Z" id="Shape" fill="#00B87D"></path>
                </g>
            </g>
        </g>
    </g>
    </g>
</svg>