<svg xmlns="http://www.w3.org/2000/svg" xmlns:xlink="http://www.w3.org/1999/xlink" viewBox="0 0 90.1 90"><defs><style>.cls-1{fill:url(#linear-gradient);}</style><linearGradient id="linear-gradient" x1="45.05" y1="-0.33" x2="45.05" y2="89.77" gradientUnits="userSpaceOnUse"><stop offset="0" stop-color="#f5d94e"/><stop offset="1" stop-color="#fc55e8"/></linearGradient></defs><g id="Layer_2" data-name="Layer 2"><g id="Layer_1-2" data-name="Layer 1"><path class="cls-1" d="M72.2,4.6,53.4,32.5a2,2,0,0,0,3,2.6L74.9,19a.72.72,0,0,1,1.2.6V69.9a.75.75,0,0,1-1.3.5l-56-67A9.25,9.25,0,0,0,11.5,0h-2A9.58,9.58,0,0,0,0,9.6V80.4a9.6,9.6,0,0,0,17.8,5L36.6,57.5a2,2,0,0,0-3-2.6l-18.5,16a.72.72,0,0,1-1.2-.6V20.1a.75.75,0,0,1,1.3-.5l56,67A9.4,9.4,0,0,0,78.5,90h2a9.6,9.6,0,0,0,9.6-9.6V9.6a9.67,9.67,0,0,0-17.9-5Z"/></g></g></svg>