<svg width="18" height="16" viewBox="0 0 18 16" fill="none" xmlns="http://www.w3.org/2000/svg">
                                    <path d="M13.0331 2.83037C13.3495 2.83037 13.611 3.0655 13.6524 3.37056L13.6581 3.45537L13.658 13.2887L15.9882 10.9492C16.2317 10.7045 16.6274 10.7036 16.8721 10.9471C17.0945 11.1685 17.1154 11.5157 16.9345 11.7608L16.8741 11.831L13.476 15.2449C13.4555 15.265 13.4346 15.2833 13.4126 15.3001L13.476 15.2449C13.4453 15.2757 13.4122 15.3026 13.3774 15.3257C13.3652 15.3333 13.3525 15.341 13.3396 15.3483C13.3276 15.3556 13.3154 15.3619 13.303 15.3678C13.2908 15.3732 13.2784 15.3787 13.2659 15.3837C13.2499 15.3906 13.2335 15.3964 13.2169 15.4014C13.2071 15.4041 13.1971 15.4069 13.187 15.4094C13.169 15.4144 13.151 15.4181 13.1328 15.421C13.1242 15.422 13.1153 15.4232 13.1063 15.4243C13.0858 15.4271 13.0654 15.4285 13.0451 15.4289C13.0411 15.4285 13.0371 15.4285 13.0331 15.4285L13.0209 15.4289C13.0005 15.4285 12.9802 15.4271 12.9599 15.4247L13.0331 15.4285C12.999 15.4285 12.9656 15.4258 12.9331 15.4206C12.915 15.4181 12.8969 15.4144 12.879 15.4098C12.8695 15.407 12.86 15.4043 12.8506 15.4015C12.8327 15.3965 12.8149 15.3902 12.7974 15.383C12.7878 15.3786 12.7785 15.3746 12.7694 15.3703C12.755 15.3642 12.7405 15.3568 12.7264 15.3488C12.7136 15.341 12.701 15.3333 12.6886 15.3251C12.679 15.3194 12.6695 15.3127 12.6602 15.3058L12.6535 15.3001C12.6316 15.2833 12.6107 15.265 12.5911 15.2455L12.59 15.2449L9.19188 11.831C8.94837 11.5864 8.94929 11.1906 9.19393 10.9471C9.41633 10.7258 9.76359 10.7064 10.0078 10.8885L10.0778 10.9492L12.408 13.2904L12.4081 3.45537C12.4081 3.11019 12.6879 2.83037 13.0331 2.83037ZM4.75938 0.569072L4.77156 0.568726C4.79192 0.569117 4.81228 0.570498 4.83253 0.572868L4.75938 0.569072C4.79343 0.569072 4.82684 0.571795 4.85941 0.577034C4.87723 0.579469 4.89511 0.583149 4.91284 0.587617C4.92326 0.590674 4.93388 0.593656 4.94439 0.596907C4.9608 0.601534 4.97668 0.607158 4.99236 0.613442C5.0037 0.618489 5.01517 0.623506 5.02647 0.628851C5.03989 0.634654 5.0531 0.641483 5.06611 0.648814C5.07725 0.655673 5.08828 0.662355 5.09908 0.669361C5.11019 0.675968 5.12132 0.683701 5.13224 0.691837L5.20244 0.75269L8.60059 4.16658C8.8441 4.41122 8.84318 4.80695 8.59854 5.05046C8.37614 5.27184 8.02888 5.29121 7.78462 5.1091L7.71466 5.04842L5.38383 2.70623L5.38438 12.5422C5.38438 12.8874 5.10456 13.1672 4.75938 13.1672C4.44297 13.1672 4.18147 12.9321 4.14009 12.627L4.13438 12.5422L4.13383 2.70706L1.80429 5.04842C1.58291 5.27082 1.23574 5.29179 0.990647 5.11081L0.920409 5.05046C0.698008 4.82908 0.677034 4.48191 0.858013 4.23682L0.918366 4.16658L4.31651 0.75269L4.35332 0.718943C4.36196 0.711549 4.3708 0.704388 4.37985 0.697468L4.31651 0.75269C4.34717 0.721889 4.38024 0.694953 4.41512 0.671882C4.42728 0.664302 4.43993 0.656563 4.45286 0.649271C4.46487 0.642034 4.47708 0.635684 4.48944 0.629764C4.50164 0.624363 4.51402 0.618912 4.52661 0.61386C4.54259 0.607024 4.55899 0.601236 4.57555 0.596152C4.58563 0.593445 4.59595 0.59056 4.60638 0.587936C4.62317 0.583325 4.64014 0.579799 4.65721 0.576984C4.66747 0.5757 4.67753 0.5743 4.68767 0.573142C4.70696 0.570492 4.72675 0.569149 4.74656 0.568742C4.75093 0.569115 4.75515 0.569072 4.75938 0.569072Z" fill="#d77e7e"></path>
                                    <defs>
                                        <linearGradient id="paint0_linear_376_9357" x1="16.3761" y1="13.6691" x2="0.747688" y2="12.712" gradientUnits="userSpaceOnUse">
                                            <stop stop-color="#04AD79"></stop>
                                            <stop offset="1" stop-color="#00AE76"></stop>
                                        </linearGradient>
                                    </defs>
                                </svg>