<svg width="18" height="14" viewBox="0 0 18 14" fill="none" xmlns="http://www.w3.org/2000/svg">
<path d="M17.7324 1.70269C17.1061 1.98019 16.4334 2.16769 15.7261 2.25244C16.4559 1.81578 17.0018 1.12854 17.2621 0.318936C16.5765 0.726178 15.8261 1.01283 15.0436 1.16644C14.5174 0.604585 13.8204 0.23218 13.0609 0.107041C12.3013 -0.018098 11.5217 0.111029 10.8431 0.474375C10.1644 0.837721 9.62471 1.41496 9.30775 2.11646C8.99078 2.81797 8.91428 3.6045 9.09013 4.35394C7.7009 4.28418 6.34185 3.9231 5.1012 3.29411C3.86055 2.66513 2.76601 1.78231 1.88863 0.702936C1.58863 1.22044 1.41613 1.82044 1.41613 2.45944C1.4158 3.03468 1.55746 3.60112 1.82854 4.10849C2.09962 4.61585 2.49175 5.04846 2.97013 5.36794C2.41534 5.35028 1.87279 5.20037 1.38763 4.93069V4.97569C1.38757 5.78249 1.66666 6.56447 2.17752 7.18893C2.68838 7.8134 3.39956 8.24188 4.19038 8.40169C3.67572 8.54097 3.13613 8.56149 2.61238 8.46169C2.8355 9.1559 3.27013 9.76296 3.85541 10.1979C4.44069 10.6328 5.14732 10.8738 5.87638 10.8872C4.63876 11.8587 3.1103 12.3858 1.53688 12.3834C1.25817 12.3835 0.979688 12.3672 0.702881 12.3347C2.29999 13.3616 4.15914 13.9066 6.05788 13.9044C12.4854 13.9044 15.9991 8.58094 15.9991 3.96394C15.9991 3.81394 15.9954 3.66244 15.9886 3.51244C16.6721 3.01817 17.2621 2.40611 17.7309 1.70494L17.7324 1.70269Z" fill="#F7F8FB"/>
</svg>
